<svg width="20" height="21" viewBox="0 0 20 21" fill="none" xmlns="http://www.w3.org/2000/svg">
<path fill-rule="evenodd" clip-rule="evenodd" d="M9.99994 0.998047C4.4862 0.998047 0 5.48408 0 10.9981C0 16.5126 4.4862 20.9986 9.99994 20.9986C15.5138 20.9986 20 16.5126 20 10.9981C20 5.48408 15.5138 0.998047 9.99994 0.998047ZM14.8076 11.7679H10.7692V15.998C10.7692 16.4228 10.4246 16.7669 9.99994 16.7669C9.57538 16.7669 9.2308 16.4228 9.2308 15.998V11.7679H5.1923C4.76772 11.7679 4.42301 11.4228 4.42301 10.9981C4.42301 10.5733 4.76772 10.2287 5.1923 10.2287H9.2308V6.38299C9.2308 5.95772 9.57538 5.61417 9.99994 5.61417C10.4246 5.61417 10.7692 5.95772 10.7692 6.38299V10.2287H14.8076C15.2323 10.2287 15.5769 10.5733 15.5769 10.9981C15.5769 11.4228 15.2323 11.7679 14.8076 11.7679Z" fill="#3FDBB1"/>
</svg>
